:FULLY-SPECIFIED
:FORCE-ALL-JOINTS-BE-3DOF
:DEGREES
476
root 3.58971 16.265 -7.12725 16.4142 45.6678 -0.542709
lfemur -51.8992 16.7395 -20.4008
ltibia 55.4469 0 0
lfoot -19.8577 -1.87948 0
ltoes 14.566 0 0
rfemur -2.25487 -3.0139 13.7774
rtibia 42.9017 0 0
rfoot 26.7808 -13.5816 0
rtoes -45.7577 0 0
lowerback -0.135605 0.0547587 5.25268
upperback -0.951692 0.144498 2.11194
thorax -0.894275 0.0460346 -0.767431
lowerneck -8.1672 -4.54906 2.49197
upperneck 2.60422 -6.34966 0.627197
head 2.17433 -3.11243 -0.478065
lclavicle -5.70115e-14 -2.31329e-14 0
lhumerus -47.2903 -23.6755 105.555
lradius 51.8269 0 0
lwrist 1.04589 0 0
lhand -23.356 -12.7617 0
lfingers 7.12502 0 0
lthumb 3.10273 17.2161 0
rclavicle -5.70115e-14 -2.31329e-14 0
rhumerus -56.8071 -5.52736 -81.0438
rradius 59.0745 0 0
rwrist 11.9383 0 0
rhand -33.3983 -30.5148 0
rfingers 7.12502 0 0
rthumb -6.58634 -780.686 0
477
root 3.66922 16.2873 -7.08111 16.7481 46.5921 0.135326
lfemur -50.9724 15.4645 -20.4425
ltibia 54.9797 0 0
lfoot -19.9299 -1.91694 0
ltoes 14.6619 0 0
rfemur -4.12513 -2.92089 13.588
rtibia 45.0514 0 0
rfoot 26.1902 -12.647 0
rtoes -44.3197 0 0
lowerback 0.022858 0.0380789 4.99023
upperback -0.913241 0.120515 2.01485
thorax -0.943025 0.0352526 -0.720383
lowerneck -8.17687 -4.67503 2.37484
upperneck 2.67176 -6.51016 0.686101
head 2.20944 -3.19104 -0.450652
lclavicle -5.35142e-14 -2.21709e-14 0
lhumerus -47.3564 -23.9845 105.734
lradius 52.0687 0 0
lwrist 1.28115 0 0
lhand -22.2076 -12.1261 0
lfingers 7.12502 0 0
lthumb 4.20893 17.7762 0
rclavicle -5.35142e-14 -2.21709e-14 0
rhumerus -56.5738 -4.98489 -81.559
rradius 59.2136 0 0
rwrist 12.4336 0 0
rhand -33.0687 -30.2516 0
rfingers 7.12502 0 0
rthumb -6.26789 -780.428 0
478
root 3.74873 16.3096 -7.03496 16.7478 47.9622 0.609414
lfemur -49.7292 13.7461 -20.5547
ltibia 54.3511 0 0
lfoot -20.0254 -1.95839 0
ltoes 14.8371 0 0
rfemur -6.63259 -2.77518 13.3387
rtibia 47.8655 0 0
rfoot 25.482 -11.3937 0
rtoes -42.3971 0 0
lowerback 0.232023 0.013031 4.64057
upperback -0.863636 0.0842655 1.89333
thorax -1.00889 0.0188646 -0.649175
lowerneck -8.19371 -4.86298 2.20415
upperneck 2.78301 -6.75001 0.766605
head 2.2634 -3.30849 -0.413171
lclavicle -4.91153e-14 -2.0912e-14 0
lhumerus -47.4601 -24.3974 106.011
lradius 52.3848 0 0
lwrist 1.57764 0 0
lhand -20.6659 -11.3053 0
lfingers 7.12502 0 0
lthumb 5.69383 18.4928 0
rclavicle -4.91153e-14 -2.0912e-14 0
rhumerus -56.2204 -4.16271 -82.2076
rradius 59.4953 0 0
rwrist 13.0528 0 0
rhand -32.544 -29.8702 0
rfingers 7.12502 0 0
rthumb -5.76134 -780.045 0
479
root 3.82824 16.332 -6.98882 16.3642 49.8459 0.847135
lfemur -48.1322 11.5299 -20.7537
ltibia 53.5394 0 0
lfoot -20.1457 -2.00204 0
ltoes 15.1094 0 0
rfemur -9.85198 -2.56971 13.0235
rtibia 51.4244 0 0
rfoot 24.6542 -9.78268 0
rtoes -39.9298 0 0
lowerback 0.496483 -0.021855 4.19333
upperback -0.802048 0.0335853 1.7449
thorax -1.09364 -0.0041432 -0.550423
lowerneck -8.21894 -5.12209 1.97226
upperneck 2.94429 -7.08098 0.871526
head 2.33886 -3.47055 -0.364256
lclavicle -4.37329e-14 -1.93279e-14 0
lhumerus -47.6079 -24.9255 106.401
lradius 52.7835 0 0
lwrist 1.94068 0 0
lhand -18.6835 -10.2801 0
lfingers 7.12502 0 0
lthumb 7.60296 19.3814 0
rclavicle -4.37329e-14 -1.93279e-14 0
rhumerus -55.7333 -3.02503 -83.0029
rradius 59.9375 0 0
rwrist 13.8098 0 0
rhand -31.7989 -29.3556 0
rfingers 7.12502 0 0
rthumb -5.04236 -779.521 0
480
root 3.90775 16.3543 -6.94267 15.5479 52.3109 0.816068
lfemur -46.1439 8.76159 -21.0553
ltibia 52.5231 0 0
lfoot -20.2923 -2.0461 0
ltoes 15.4962 0 0
rfemur -13.858 -2.29741 12.6365
rtibia 55.8086 0 0
rfoot 23.7047 -7.77487 0
rtoes -36.8575 0 0
lowerback 0.82083 -0.0680494 3.6381
upperback -0.727646 -0.0336914 1.56708
thorax -1.19907 -0.0347849 -0.420746
lowerneck -8.25377 -5.46153 1.67152
upperneck 3.16193 -7.51483 1.00368
head 2.43849 -3.68299 -0.302545
lclavicle -3.72855e-14 -1.73904e-14 0
lhumerus -47.8069 -25.5804 106.919
lradius 53.273 0 0
lwrist 2.37558 0 0
lhand -16.2132 -9.03171 0
lfingers 7.12502 0 0
lthumb 9.98186 20.4574 0
rclavicle -3.72855e-14 -1.73904e-14 0
rhumerus -55.0988 -1.5361 -83.9578
rradius 60.5581 0 0
rwrist 14.7183 0 0
rhand -30.808 -28.693 0
rfingers 7.12502 0 0
rthumb -4.08658 -778.84 0
481
root 3.98726 16.3767 -6.89653 14.25 55.425 0.483792
lfemur -43.727 5.38671 -21.4756
ltibia 51.2803 0 0
lfoot -20.4669 -2.08877 0
ltoes 16.0151 0 0
rfemur -18.7255 -1.95123 12.1716
rtibia 61.0987 0 0
rfoot 22.6314 -5.33123 0
rtoes -33.1204 0 0
lowerback 1.20966 -0.127022 2.96449
upperback -0.6396 -0.11973 1.35739
thorax -1.32696 -0.0740745 -0.256761
lowerneck -8.29943 -5.89046 1.29426
upperneck 3.44223 -8.06333 1.16587
head 2.56495 -3.95157 -0.226671
lclavicle -2.9691e-14 -1.50712e-14 0
lhumerus -48.0639 -26.3736 107.58
lradius 53.8616 0 0
lwrist 2.88767 0 0
lhand -13.2075 -7.54094 0
lfingers 7.12502 0 0
lthumb 12.8761 21.7363 0
rclavicle -2.9691e-14 -1.50712e-14 0
rhumerus -54.3034 0.339872 -85.0857
rradius 61.3752 0 0
rwrist 15.7923 0 0
rhand -29.5461 -27.8677 0
rfingers 7.12502 0 0
rthumb -2.86966 -777.986 0
482
root 4.06677 16.399 -6.85038 12.4211 59.256 -0.182114
lfemur -40.844 1.35085 -22.0306
ltibia 49.7897 0 0
lfoot -20.6709 -2.12825 0
ltoes 16.6839 0 0
rfemur -24.529 -1.52408 11.6228
rtibia 67.3751 0 0
rfoot 21.4322 -2.41273 0
rtoes -28.6582 0 0
lowerback 1.66756 -0.200244 2.16212
upperback -0.53708 -0.226696 1.11336
thorax -1.4791 -0.123026 -0.0550857
lowerneck -8.35714 -6.41807 0.832849
upperneck 3.79153 -8.73823 1.36093
head 2.72089 -4.28205 -0.135272
lclavicle -2.08678e-14 -1.23421e-14 0
lhumerus -48.3855 -27.3165 108.4
lradius 54.5578 0 0
lwrist 3.48226 0 0
lhand -9.61925 -5.78879 0
lfingers 7.12502 0 0
lthumb 16.3311 23.2336 0
rclavicle -2.08678e-14 -1.23421e-14 0
rhumerus -53.3335 2.63865 -86.3995
rradius 62.4068 0 0
rwrist 17.0454 0 0
rhand -27.988 -26.8648 0
rfingers 7.12502 0 0
rthumb -1.36723 -776.944 0
483
root 4.14628 16.4214 -6.80424 10.0122 63.8717 -1.21407
lfemur -37.4575 -3.40039 -22.7365
ltibia 48.0294 0 0
lfoot -20.9059 -2.16274 0
ltoes 17.5199 0 0
rfemur -31.3434 -1.00892 10.9842
rtibia 74.7183 0 0
rfoot 20.105 1.01968 0
rtoes -23.4109 0 0
lowerback 2.19912 -0.289184 1.2206
upperback -0.419256 -0.356755 0.832491
thorax -1.65726 -0.182653 0.187662
lowerneck -8.42811 -7.05353 0.279623
upperneck 4.21616 -9.5513 1.59166
head 2.90898 -4.6802 -0.0269828
lclavicle -1.07341e-14 -9.17479e-15 0
lhumerus -48.7788 -28.4206 109.391
lradius 55.3697 0 0
lwrist 4.16467 0 0
lhand -5.40109 -3.75623 0
lfingers 7.12502 0 0
lthumb 20.3925 24.9647 0
rclavicle -1.07341e-14 -9.17479e-15 0
rhumerus -52.1756 5.396 -87.9124
rradius 63.6707 0 0
rwrist 18.4916 0 0
rhand -26.1083 -25.6695 0
rfingers 7.12502 0 0
rthumb 0.445057 -775.698 0
484
root 4.22579 16.4437 -6.75809 6.97404 69.3397 -2.6445
lfemur -33.53 -8.92142 -23.6091
ltibia 45.9779 0 0
lfoot -21.1734 -2.19044 0
ltoes 18.5409 0 0
rfemur -39.2433 -0.398685 10.2498
rtibia 83.2088 0 0
rfoot 18.6477 5.00504 0
rtoes -17.3184 0 0
lowerback 2.80895 -0.395314 0.129542
upperback -0.285297 -0.512072 0.512318
thorax -1.86323 -0.25397 0.474865
lowerneck -8.51357 -7.80601 -0.373066
upperneck 4.72242 -10.5143 1.86088
head 3.13186 -5.15179 0.0995613
lclavicle 7.92033e-16 -5.54112e-15 0
lhumerus -49.2505 -29.6974 110.571
lradius 56.3056 0 0
lwrist 4.94023 0 0
lhand -0.505724 -1.42422 0
lfingers 7.12502 0 0
lthumb 25.1059 26.9452 0
rclavicle 7.92033e-16 -5.54112e-15 0
rhumerus -50.8159 8.64771 -89.6376
rradius 65.185 0 0
rwrist 20.1445 0 0
rhand -23.8818 -24.267 0
rfingers 7.12502 0 0
rthumb 2.59155 -774.231 0
485
root 4.29201 16.4428 -6.6979 3.9506 70.2043 -5.4243
lfemur -32.9566 -9.67601 -23.6867
ltibia 45.7899 0 0
lfoot -21.2675 -2.27646 0
ltoes 18.5623 0 0
rfemur -40.4266 -0.20614 10.127
rtibia 83.8595 0 0
rfoot 18.3384 5.49926 0
rtoes -16.6184 0 0
lowerback 2.95015 -0.402737 -0.0102515
upperback -0.255362 -0.524265 0.498493
thorax -1.91164 -0.258879 0.539809
lowerneck -8.53489 -7.93649 -0.482666
upperneck 4.87161 -10.6818 1.89221
head 3.18633 -5.23345 0.111942
lclavicle 1.88302e-15 -4.8349e-15 0
lhumerus -49.2885 -29.9246 110.818
lradius 56.4062 0 0
lwrist 5.0159 0 0
lhand 0.19291 -1.13567 0
lfingers 7.12502 0 0
lthumb 25.7773 27.1684 0
rclavicle 1.88302e-15 -4.8349e-15 0
rhumerus -50.3442 9.66721 -89.753
rradius 65.9767 0 0
rwrist 20.1757 0 0
rhand -23.0717 -23.9007 0
rfingers 7.12502 0 0
rthumb 3.37045 -773.801 0
486
root 4.35822 16.442 -6.63772 2.51924 70.871 -6.6874
lfemur -32.5358 -10.2578 -23.7557
ltibia 45.5677 0 0
lfoot -21.3076 -2.34411 0
ltoes 18.6607 0 0
rfemur -41.2881 -0.0852098 10.0736
rtibia 84.5355 0 0
rfoot 18.1349 5.8703 0
rtoes -16.0171 0 0
lowerback 3.02566 -0.412849 -0.122288
upperback -0.246166 -0.54164 0.468043
thorax -1.94429 -0.267169 0.572358
lowerneck -8.55559 -8.01186 -0.547709
upperneck 4.95171 -10.7776 1.90944
head 3.21643 -5.28051 0.120361
lclavicle 2.90922e-15 -4.37311e-15 0
lhumerus -49.3347 -30.093 110.983
lradius 56.4774 0 0
lwrist 5.04711 0 0
lhand 0.755984 -0.898062 0
lfingers 7.12502 0 0
lthumb 26.3186 27.356 0
rclavicle 2.90922e-15 -4.37311e-15 0
rhumerus -50.1898 10.3396 -89.8955
rradius 66.3107 0 0
rwrist 20.3951 0 0
rhand -22.5473 -23.6588 0
rfingers 7.12502 0 0
rthumb 3.8748 -773.52 0
487
root 4.42444 16.4411 -6.57753 2.35003 71.3685 -6.75239
lfemur -32.2459 -10.6888 -23.8152
ltibia 45.3225 0 0
lfoot -21.3042 -2.39829 0
ltoes 18.8184 0 0
rfemur -41.8748 -0.0219544 10.0779
rtibia 85.2089 0 0
rfoot 18.0182 6.13284 0
rtoes -15.5091 0 0
lowerback 3.04737 -0.424861 -0.209623
upperback -0.253991 -0.562845 0.425007
thorax -1.96407 -0.278025 0.578328
lowerneck -8.57584 -8.04127 -0.575489
upperneck 4.97578 -10.8138 1.91455
head 3.22662 -5.29871 0.125224
lclavicle 3.85501e-15 -4.1137e-15 0
lhumerus -49.3865 -30.212 111.079
lradius 56.5223 0 0
lwrist 5.03998 0 0
lhand 1.20058 -0.706508 0
lfingers 7.12502 0 0
lthumb 26.7463 27.5103 0
rclavicle 3.85501e-15 -4.1137e-15 0
rhumerus -50.2929 10.733 -90.0554
rradius 66.2778 0 0
rwrist 20.7627 0 0
rhand -22.2511 -23.5177 0
rfingers 7.12502 0 0
rthumb 4.1597 -773.359 0
